<svg xmlns="http://www.w3.org/2000/svg" viewBox="0 0 1024 768" role="img" aria-labelledby="d0t"><title id="d0t">L0 skeleton</title>
  <defs><path id="FT" d="M 8,-6 C 34,-6 50,0 57,9 C 63,13 61,21 51,21 L -8,21 C -18,21 -18,-3 -9,-5 Z"/><marker id="ah" markerUnits="userSpaceOnUse" markerWidth="26" markerHeight="26" refX="18" refY="13" orient="auto-start-reverse"><path d="M5,3 L21,13 L5,23" fill="none" stroke="#2563EB" stroke-width="5" stroke-linecap="round" stroke-linejoin="round"/></marker></defs>
  <g><line x1="316.8" y1="702" x2="707.2" y2="702" stroke="#1F2937" stroke-width="4" stroke-linecap="round" opacity="0.45"/></g><g opacity="0.4"><path d="M 394.6,220.8 L 412.3,311 A 14.7 14.7 0 0 1 441.4,307 L 434.2,215.4 A 20 20 0 0 1 394.6,220.8 Z" fill="#D5D9DF" stroke="#9CA3AF" stroke-width="3.6" stroke-linejoin="round" stroke-linecap="round"/><path d="M 411.2,311.7 L 432.3,401.6 A 10.6 10.6 0 0 1 453.1,398 L 442.4,306.2 A 15.9 15.9 0 0 1 411.2,311.7 Z" fill="#D5D9DF" stroke="#9CA3AF" stroke-width="3.6" stroke-linejoin="round" stroke-linecap="round"/><path d="M 437.2,400.8 L 435.4,423.1 L 441.6,444 Q 451.5,450.1 458.7,441 L 457.4,419.2 L 448.2,398.9 Q 442,396 437.2,400.8 Z" fill="#D5D9DF" stroke="#9CA3AF" stroke-width="3.6" stroke-linejoin="round" stroke-linecap="round"/><circle cx="457.2" cy="412.9" r="5.3" fill="#D5D9DF" stroke="#9CA3AF" stroke-width="3.6" stroke-linejoin="round" stroke-linecap="round"/><path d="M 385,382.6 L 394.4,518.8 A 20 20 0 0 1 434.3,518.8 L 443.7,382.6 A 29.4 29.4 0 0 1 385,382.6 Z" fill="#D5D9DF" stroke="#9CA3AF" stroke-width="3.6" stroke-linejoin="round" stroke-linecap="round"/><path d="M 391.5,517.6 L 395.6,663.2 A 11.2 11.2 0 0 1 417.9,664.3 L 437.3,520 A 22.9 22.9 0 0 1 391.5,517.6 Z" fill="#D5D9DF" stroke="#9CA3AF" stroke-width="3.6" stroke-linejoin="round" stroke-linecap="round"/><path d="M 392,658.7 Q 385.4,664.1 384.9,676.4 L 466.6,690.8 Q 473,691.1 464.1,676.4 Q 429.9,663.2 392,658.7 Z" fill="#D5D9DF" stroke="#9CA3AF" stroke-width="3.6" stroke-linejoin="round" stroke-linecap="round"/><path d="M 427.3,206.3 L 426.7,176.4 A 12.3 12.3 0 0 1 402.1,176.4 L 401.5,206.3 A 12.9 12.9 0 0 1 427.3,206.3 Z" fill="#D5D9DF" stroke="#9CA3AF" stroke-width="3.6" stroke-linejoin="round" stroke-linecap="round"/><circle cx="414.4" cy="212.2" r="22.3" fill="#D5D9DF" stroke="#9CA3AF" stroke-width="3.6" stroke-linejoin="round" stroke-linecap="round"/><path d="M 446.1,382.6 Q 446.1,347.3 443.9,324.4 Q 441.7,301.5 443.1,280.3 Q 444.4,259.2 450.3,243.3 Q 456.3,227.5 456.3,216.9 L 456.3,206.3 Q 414.4,200.1 372.5,206.3 Q 372.5,227.5 378.4,243.3 Q 384.3,259.2 385.7,280.3 Q 387.1,301.5 384.9,324.4 Q 382.7,347.3 382.7,364.9 L 382.7,382.6 Q 414.4,386.1 446.1,382.6 Z" fill="#D5D9DF" stroke="#9CA3AF" stroke-width="3.6" stroke-linejoin="round" stroke-linecap="round"/><ellipse cx="414.4" cy="138.2" rx="26" ry="38.2" fill="#D5D9DF" stroke="#9CA3AF" stroke-width="3.6" stroke-linejoin="round" stroke-linecap="round" transform="rotate(0 414.4 138.2)"/></g><line x1="414.4" y1="405.7" x2="470.6" y2="238.7" stroke="#1F2937" stroke-width="2.7"/><line x1="470.6" y1="238.7" x2="480.2" y2="210.3" stroke="#1F2937" stroke-width="2.7"/><line x1="480.2" y1="210.3" x2="492.4" y2="174.1" stroke="#1F2937" stroke-width="2.7"/><line x1="414.4" y1="405.7" x2="414.4" y2="405.7" stroke="#1F2937" stroke-width="2.7"/><line x1="470.6" y1="238.7" x2="470.6" y2="238.7" stroke="#1F2937" stroke-width="2.7"/><line x1="470.6" y1="238.7" x2="470.6" y2="238.7" stroke="#1F2937" stroke-width="2.7"/><line x1="470.6" y1="238.7" x2="470.6" y2="238.7" stroke="#1F2937" stroke-width="2.7"/><line x1="414.4" y1="405.7" x2="414.4" y2="405.7" stroke="#1F2937" stroke-width="2.7"/><line x1="414.4" y1="405.7" x2="414.4" y2="405.7" stroke="#1F2937" stroke-width="2.7"/><line x1="414.4" y1="405.7" x2="489" y2="519.7" stroke="#1F2937" stroke-width="2.7"/><line x1="489" y1="519.7" x2="481.8" y2="664.6" stroke="#1F2937" stroke-width="2.7"/><line x1="481.8" y1="664.6" x2="514.1" y2="665.9" stroke="#1F2937" stroke-width="2.7"/><line x1="414.4" y1="405.7" x2="489" y2="519.7" stroke="#1F2937" stroke-width="2.7"/><line x1="489" y1="519.7" x2="481.8" y2="664.6" stroke="#1F2937" stroke-width="2.7"/><line x1="481.8" y1="664.6" x2="514.1" y2="665.9" stroke="#1F2937" stroke-width="2.7"/><line x1="470.6" y1="238.7" x2="514.7" y2="332.2" stroke="#1F2937" stroke-width="2.7"/><line x1="514.7" y1="332.2" x2="606.8" y2="337.1" stroke="#1F2937" stroke-width="2.7"/><line x1="606.8" y1="337.1" x2="654.9" y2="339.6" stroke="#1F2937" stroke-width="2.7"/><line x1="470.6" y1="238.7" x2="514.7" y2="332.2" stroke="#1F2937" stroke-width="2.7"/><line x1="514.7" y1="332.2" x2="606.8" y2="337.1" stroke="#1F2937" stroke-width="2.7"/><line x1="606.8" y1="337.1" x2="654.9" y2="339.6" stroke="#1F2937" stroke-width="2.7"/><circle cx="414.4" cy="405.7" r="5.3" fill="#2563EB"/><circle cx="470.6" cy="238.7" r="5.3" fill="#2563EB"/><circle cx="480.2" cy="210.3" r="5.3" fill="#2563EB"/><circle cx="414.4" cy="405.7" r="5.3" fill="#2563EB"/><circle cx="414.4" cy="405.7" r="5.3" fill="#2563EB"/><circle cx="470.6" cy="238.7" r="5.3" fill="#2563EB"/><circle cx="470.6" cy="238.7" r="5.3" fill="#2563EB"/><circle cx="514.7" cy="332.2" r="5.3" fill="#2563EB"/><circle cx="606.8" cy="337.1" r="5.3" fill="#2563EB"/><circle cx="654.9" cy="339.6" r="5.3" fill="#2563EB"/><circle cx="514.7" cy="332.2" r="5.3" fill="#2563EB"/><circle cx="606.8" cy="337.1" r="5.3" fill="#2563EB"/><circle cx="654.9" cy="339.6" r="5.3" fill="#2563EB"/><circle cx="489" cy="519.7" r="5.3" fill="#2563EB"/><circle cx="481.8" cy="664.6" r="5.3" fill="#2563EB"/><circle cx="489" cy="519.7" r="5.3" fill="#2563EB"/><circle cx="481.8" cy="664.6" r="5.3" fill="#2563EB"/><circle cx="492.4" cy="174.1" r="38.2" fill="none" stroke="#2563EB" stroke-width="2.7"/><path d="M 403.7,398.6 L 347.6,443.1" fill="none" stroke="#2563EB" stroke-width="6" marker-end="url(#ah)"/><line x1="514.1" y1="665.9" x2="514.1" y2="479" stroke="#10B981" stroke-width="4" stroke-dasharray="2 14"/>
</svg>
