<svg xmlns="http://www.w3.org/2000/svg" viewBox="0 0 1024 768" role="img" aria-labelledby="nt"><title id="nt">neutral M</title>
  <defs><path id="FT" d="M 8,-6 C 34,-6 50,0 57,9 C 63,13 61,21 51,21 L -8,21 C -18,21 -18,-3 -9,-5 Z"/><marker id="ah" markerUnits="userSpaceOnUse" markerWidth="26" markerHeight="26" refX="18" refY="13" orient="auto-start-reverse"><path d="M5,3 L21,13 L5,23" fill="none" stroke="#2563EB" stroke-width="5" stroke-linecap="round" stroke-linejoin="round"/></marker></defs>
  <g><line x1="387.6" y1="702" x2="636.4" y2="702" stroke="#1F2937" stroke-width="4" stroke-linecap="round" opacity="0.45"/></g><path d="M 449.3,383 L 458.8,519.5 A 20 20 0 0 1 498.8,519.5 L 508.2,383 A 29.4 29.4 0 0 1 449.3,383 Z" fill="#1F2937" stroke="#1F2937" stroke-width="4.3" stroke-linejoin="round" stroke-linecap="round"/><path d="M 455.8,519.5 L 467.6,664.6 A 11.2 11.2 0 0 1 489.9,664.6 L 501.7,519.5 A 22.9 22.9 0 0 1 455.8,519.5 Z" fill="#1F2937" stroke="#1F2937" stroke-width="4.3" stroke-linejoin="round" stroke-linecap="round"/><ellipse cx="478.8" cy="675.3" rx="17.1" ry="11.9" fill="#1F2937" stroke="#1F2937" stroke-width="4.3" stroke-linejoin="round" stroke-linecap="round"/><path d="M 515.8,383 L 525.2,519.5 A 20 20 0 0 1 565.2,519.5 L 574.7,383 A 29.4 29.4 0 0 1 515.8,383 Z" fill="#1F2937" stroke="#1F2937" stroke-width="4.3" stroke-linejoin="round" stroke-linecap="round"/><path d="M 522.3,519.5 L 534.1,664.6 A 11.2 11.2 0 0 1 556.4,664.6 L 568.2,519.5 A 22.9 22.9 0 0 1 522.3,519.5 Z" fill="#1F2937" stroke="#1F2937" stroke-width="4.3" stroke-linejoin="round" stroke-linecap="round"/><ellipse cx="545.2" cy="675.3" rx="17.1" ry="11.9" fill="#1F2937" stroke="#1F2937" stroke-width="4.3" stroke-linejoin="round" stroke-linecap="round"/><path d="M 564.9,383 Q 563.4,347.7 559.7,324.7 Q 556.1,301.8 558.3,280.6 Q 560.5,259.4 569.8,243.5 Q 579,227.7 575.9,217.1 L 572.9,206.5 Q 512,200.2 451.1,206.5 Q 445,227.7 454.2,243.5 Q 463.5,259.4 465.7,280.6 Q 467.9,301.8 464.3,324.7 Q 460.6,347.7 459.8,365.3 L 459.1,383 Q 512,386.5 564.9,383 Z" fill="#1F2937" stroke="#1F2937" stroke-width="4.3" stroke-linejoin="round" stroke-linecap="round"/><path d="M 524.9,206.5 L 524.3,176.5 A 12.3 12.3 0 0 1 499.7,176.5 L 499.1,206.5 A 12.9 12.9 0 0 1 524.9,206.5 Z" fill="#1F2937" stroke="#1F2937" stroke-width="4.3" stroke-linejoin="round" stroke-linecap="round"/><path d="M 494.8,194.4 L 432.1,196.3 A 22.4 22.4 0 0 1 440.7,240.2 L 499.5,218.6 A 12.3 12.3 0 0 1 494.8,194.4 Z" fill="#1F2937" stroke="#1F2937" stroke-width="4.3" stroke-linejoin="round" stroke-linecap="round"/><path d="M 416.4,219 L 425.2,310.3 A 14.7 14.7 0 0 1 454.6,309.2 L 456.4,217.5 A 20 20 0 0 1 416.4,219 Z" fill="#1F2937" stroke="#1F2937" stroke-width="4.3" stroke-linejoin="round" stroke-linecap="round"/><circle cx="436.4" cy="218.3" r="22.4" fill="#1F2937" stroke="#1F2937" stroke-width="4.3" stroke-linejoin="round" stroke-linecap="round"/><path d="M 524.5,218.6 L 583.3,240.2 A 22.4 22.4 0 0 1 591.9,196.3 L 529.2,194.4 A 12.3 12.3 0 0 1 524.5,218.6 Z" fill="#1F2937" stroke="#1F2937" stroke-width="4.3" stroke-linejoin="round" stroke-linecap="round"/><path d="M 567.6,217.5 L 569.4,309.2 A 14.7 14.7 0 0 1 598.8,310.3 L 607.6,219 A 20 20 0 0 1 567.6,217.5 Z" fill="#1F2937" stroke="#1F2937" stroke-width="4.3" stroke-linejoin="round" stroke-linecap="round"/><circle cx="587.6" cy="218.3" r="22.4" fill="#1F2937" stroke="#1F2937" stroke-width="4.3" stroke-linejoin="round" stroke-linecap="round"/><path d="M 424,309.8 L 429.3,401.5 A 10.6 10.6 0 0 1 450.5,401.5 L 455.8,309.8 A 15.9 15.9 0 0 1 424,309.8 Z" fill="#1F2937" stroke="#1F2937" stroke-width="4.3" stroke-linejoin="round" stroke-linecap="round"/><path d="M 434.3,401.5 L 428.8,423 L 431.2,444.5 Q 439.9,452.2 448.7,444.5 L 451.1,423 L 445.5,401.5 Q 439.9,397.5 434.3,401.5 Z" fill="#1F2937" stroke="#1F2937" stroke-width="4.3" stroke-linejoin="round" stroke-linecap="round"/><path d="M 568.2,309.8 L 573.5,401.5 A 10.6 10.6 0 0 1 594.7,401.5 L 600,309.8 A 15.9 15.9 0 0 1 568.2,309.8 Z" fill="#1F2937" stroke="#1F2937" stroke-width="4.3" stroke-linejoin="round" stroke-linecap="round"/><path d="M 578.5,401.5 L 572.9,423 L 575.3,444.5 Q 584.1,452.2 592.8,444.5 L 595.2,423 L 589.7,401.5 Q 584.1,397.5 578.5,401.5 Z" fill="#1F2937" stroke="#1F2937" stroke-width="4.3" stroke-linejoin="round" stroke-linecap="round"/><circle cx="478.8" cy="383" r="27.1" fill="#1F2937" stroke="#1F2937" stroke-width="4.3" stroke-linejoin="round" stroke-linecap="round"/><circle cx="439.9" cy="309.8" r="18" fill="#1F2937" stroke="#1F2937" stroke-width="4.3" stroke-linejoin="round" stroke-linecap="round"/><circle cx="478.8" cy="519.5" r="23.6" fill="#1F2937" stroke="#1F2937" stroke-width="4.3" stroke-linejoin="round" stroke-linecap="round"/><circle cx="545.2" cy="383" r="27.1" fill="#1F2937" stroke="#1F2937" stroke-width="4.3" stroke-linejoin="round" stroke-linecap="round"/><circle cx="584.1" cy="309.8" r="18" fill="#1F2937" stroke="#1F2937" stroke-width="4.3" stroke-linejoin="round" stroke-linecap="round"/><circle cx="545.2" cy="519.5" r="23.6" fill="#1F2937" stroke="#1F2937" stroke-width="4.3" stroke-linejoin="round" stroke-linecap="round"/><ellipse cx="512" cy="138.2" rx="26" ry="38.2" fill="#1F2937" stroke="#1F2937" stroke-width="4.3" stroke-linejoin="round" stroke-linecap="round" transform="rotate(0 512 138.2)"/><path d="M 449.3,383 L 458.8,519.5 A 20 20 0 0 1 498.8,519.5 L 508.2,383 A 29.4 29.4 0 0 1 449.3,383 Z" fill="#E5E7EB"/><path d="M 455.8,519.5 L 467.6,664.6 A 11.2 11.2 0 0 1 489.9,664.6 L 501.7,519.5 A 22.9 22.9 0 0 1 455.8,519.5 Z" fill="#E5E7EB"/><ellipse cx="478.8" cy="675.3" rx="17.1" ry="11.9" fill="#E5E7EB"/><path d="M 515.8,383 L 525.2,519.5 A 20 20 0 0 1 565.2,519.5 L 574.7,383 A 29.4 29.4 0 0 1 515.8,383 Z" fill="#E5E7EB"/><path d="M 522.3,519.5 L 534.1,664.6 A 11.2 11.2 0 0 1 556.4,664.6 L 568.2,519.5 A 22.9 22.9 0 0 1 522.3,519.5 Z" fill="#E5E7EB"/><ellipse cx="545.2" cy="675.3" rx="17.1" ry="11.9" fill="#E5E7EB"/><path d="M 564.9,383 Q 563.4,347.7 559.7,324.7 Q 556.1,301.8 558.3,280.6 Q 560.5,259.4 569.8,243.5 Q 579,227.7 575.9,217.1 L 572.9,206.5 Q 512,200.2 451.1,206.5 Q 445,227.7 454.2,243.5 Q 463.5,259.4 465.7,280.6 Q 467.9,301.8 464.3,324.7 Q 460.6,347.7 459.8,365.3 L 459.1,383 Q 512,386.5 564.9,383 Z" fill="#E5E7EB"/><path d="M 524.9,206.5 L 524.3,176.5 A 12.3 12.3 0 0 1 499.7,176.5 L 499.1,206.5 A 12.9 12.9 0 0 1 524.9,206.5 Z" fill="#E5E7EB"/><path d="M 494.8,194.4 L 432.1,196.3 A 22.4 22.4 0 0 1 440.7,240.2 L 499.5,218.6 A 12.3 12.3 0 0 1 494.8,194.4 Z" fill="#E5E7EB"/><path d="M 416.4,219 L 425.2,310.3 A 14.7 14.7 0 0 1 454.6,309.2 L 456.4,217.5 A 20 20 0 0 1 416.4,219 Z" fill="#E5E7EB"/><circle cx="436.4" cy="218.3" r="22.4" fill="#E5E7EB"/><path d="M 524.5,218.6 L 583.3,240.2 A 22.4 22.4 0 0 1 591.9,196.3 L 529.2,194.4 A 12.3 12.3 0 0 1 524.5,218.6 Z" fill="#E5E7EB"/><path d="M 567.6,217.5 L 569.4,309.2 A 14.7 14.7 0 0 1 598.8,310.3 L 607.6,219 A 20 20 0 0 1 567.6,217.5 Z" fill="#E5E7EB"/><circle cx="587.6" cy="218.3" r="22.4" fill="#E5E7EB"/><path d="M 424,309.8 L 429.3,401.5 A 10.6 10.6 0 0 1 450.5,401.5 L 455.8,309.8 A 15.9 15.9 0 0 1 424,309.8 Z" fill="#E5E7EB"/><path d="M 434.3,401.5 L 428.8,423 L 431.2,444.5 Q 439.9,452.2 448.7,444.5 L 451.1,423 L 445.5,401.5 Q 439.9,397.5 434.3,401.5 Z" fill="#E5E7EB"/><path d="M 568.2,309.8 L 573.5,401.5 A 10.6 10.6 0 0 1 594.7,401.5 L 600,309.8 A 15.9 15.9 0 0 1 568.2,309.8 Z" fill="#E5E7EB"/><path d="M 578.5,401.5 L 572.9,423 L 575.3,444.5 Q 584.1,452.2 592.8,444.5 L 595.2,423 L 589.7,401.5 Q 584.1,397.5 578.5,401.5 Z" fill="#E5E7EB"/><circle cx="478.8" cy="383" r="27.1" fill="#E5E7EB"/><circle cx="439.9" cy="309.8" r="18" fill="#E5E7EB"/><circle cx="478.8" cy="519.5" r="23.6" fill="#E5E7EB"/><circle cx="545.2" cy="383" r="27.1" fill="#E5E7EB"/><circle cx="584.1" cy="309.8" r="18" fill="#E5E7EB"/><circle cx="545.2" cy="519.5" r="23.6" fill="#E5E7EB"/><ellipse cx="512" cy="138.2" rx="26" ry="38.2" fill="#E5E7EB" transform="rotate(0 512 138.2)"/>
</svg>
