<svg xmlns="http://www.w3.org/2000/svg" viewBox="0 0 1024 768" role="img" aria-labelledby="nt"><title id="nt">neutral F</title>
  <defs><path id="FT" d="M 8,-6 C 34,-6 50,0 57,9 C 63,13 61,21 51,21 L -8,21 C -18,21 -18,-3 -9,-5 Z"/><marker id="ah" markerUnits="userSpaceOnUse" markerWidth="26" markerHeight="26" refX="18" refY="13" orient="auto-start-reverse"><path d="M5,3 L21,13 L5,23" fill="none" stroke="#2563EB" stroke-width="5" stroke-linecap="round" stroke-linejoin="round"/></marker></defs>
  <g><line x1="403.7" y1="702" x2="620.3" y2="702" stroke="#1F2937" stroke-width="4" stroke-linecap="round" opacity="0.45"/></g><path d="M 446.8,373.4 L 457.4,521 A 19 19 0 0 1 495.4,521 L 506.1,373.4 A 29.6 29.6 0 0 1 446.8,373.4 Z" fill="#1F2937" stroke="#1F2937" stroke-width="4.3" stroke-linejoin="round" stroke-linecap="round"/><path d="M 456.3,521 L 466.9,669 A 9.5 9.5 0 0 1 485.9,669 L 496.6,521 A 20.2 20.2 0 0 1 456.3,521 Z" fill="#1F2937" stroke="#1F2937" stroke-width="4.3" stroke-linejoin="round" stroke-linecap="round"/><ellipse cx="476.4" cy="679.8" rx="14.8" ry="10.4" fill="#1F2937" stroke="#1F2937" stroke-width="4.3" stroke-linejoin="round" stroke-linecap="round"/><path d="M 517.9,373.4 L 528.6,521 A 19 19 0 0 1 566.6,521 L 577.2,373.4 A 29.6 29.6 0 0 1 517.9,373.4 Z" fill="#1F2937" stroke="#1F2937" stroke-width="4.3" stroke-linejoin="round" stroke-linecap="round"/><path d="M 527.4,521 L 538.1,669 A 9.5 9.5 0 0 1 557.1,669 L 567.7,521 A 20.2 20.2 0 0 1 527.4,521 Z" fill="#1F2937" stroke="#1F2937" stroke-width="4.3" stroke-linejoin="round" stroke-linecap="round"/><ellipse cx="547.6" cy="679.8" rx="14.8" ry="10.4" fill="#1F2937" stroke="#1F2937" stroke-width="4.3" stroke-linejoin="round" stroke-linecap="round"/><path d="M 572.8,373.4 Q 571,339 560.5,316.6 Q 550,294.3 551.7,273.6 Q 553.5,253 560.3,237.5 Q 567.2,222 564.7,211.7 L 562.2,201.4 Q 512,195.1 461.8,201.4 Q 456.8,222 463.7,237.5 Q 470.5,253 472.3,273.6 Q 474,294.3 463.5,316.6 Q 453,339 452.1,356.2 L 451.2,373.4 Q 512,377 572.8,373.4 Z" fill="#1F2937" stroke="#1F2937" stroke-width="4.3" stroke-linejoin="round" stroke-linecap="round"/><path d="M 522.7,201.4 L 522.1,177.1 A 10.1 10.1 0 0 1 501.9,177.1 L 501.3,201.4 A 10.7 10.7 0 0 1 522.7,201.4 Z" fill="#1F2937" stroke="#1F2937" stroke-width="4.3" stroke-linejoin="round" stroke-linecap="round"/><path d="M 496.8,191.7 L 443.8,199.2 A 18.4 18.4 0 0 1 454.5,234.4 L 502.7,211.1 A 10.1 10.1 0 0 1 496.8,191.7 Z" fill="#1F2937" stroke="#1F2937" stroke-width="4.3" stroke-linejoin="round" stroke-linecap="round"/><path d="M 432.6,217.5 L 440.3,306.6 A 12.5 12.5 0 0 1 465.1,305.6 L 465.7,216.2 A 16.6 16.6 0 0 1 432.6,217.5 Z" fill="#1F2937" stroke="#1F2937" stroke-width="4.3" stroke-linejoin="round" stroke-linecap="round"/><circle cx="449.1" cy="216.8" r="18.4" fill="#1F2937" stroke="#1F2937" stroke-width="4.3" stroke-linejoin="round" stroke-linecap="round"/><path d="M 521.3,211.1 L 569.5,234.4 A 18.4 18.4 0 0 1 580.2,199.2 L 527.2,191.7 A 10.1 10.1 0 0 1 521.3,211.1 Z" fill="#1F2937" stroke="#1F2937" stroke-width="4.3" stroke-linejoin="round" stroke-linecap="round"/><path d="M 558.3,216.2 L 558.9,305.6 A 12.5 12.5 0 0 1 583.7,306.6 L 591.4,217.5 A 16.6 16.6 0 0 1 558.3,216.2 Z" fill="#1F2937" stroke="#1F2937" stroke-width="4.3" stroke-linejoin="round" stroke-linecap="round"/><circle cx="574.9" cy="216.8" r="18.4" fill="#1F2937" stroke="#1F2937" stroke-width="4.3" stroke-linejoin="round" stroke-linecap="round"/><path d="M 439.1,306.1 L 443.8,400.3 A 8.9 8.9 0 0 1 461.6,400.3 L 466.3,306.1 A 13.6 13.6 0 0 1 439.1,306.1 Z" fill="#1F2937" stroke="#1F2937" stroke-width="4.3" stroke-linejoin="round" stroke-linecap="round"/><path d="M 448,400.3 L 443.2,422 L 445.3,443.7 Q 452.7,451.4 460.1,443.7 L 462.2,422 L 457.4,400.3 Q 452.7,396.9 448,400.3 Z" fill="#1F2937" stroke="#1F2937" stroke-width="4.3" stroke-linejoin="round" stroke-linecap="round"/><path d="M 557.7,306.1 L 562.4,400.3 A 8.9 8.9 0 0 1 580.2,400.3 L 584.9,306.1 A 13.6 13.6 0 0 1 557.7,306.1 Z" fill="#1F2937" stroke="#1F2937" stroke-width="4.3" stroke-linejoin="round" stroke-linecap="round"/><path d="M 566.6,400.3 L 561.8,422 L 563.9,443.7 Q 571.3,451.4 578.7,443.7 L 580.8,422 L 576,400.3 Q 571.3,396.9 566.6,400.3 Z" fill="#1F2937" stroke="#1F2937" stroke-width="4.3" stroke-linejoin="round" stroke-linecap="round"/><circle cx="476.4" cy="373.4" r="29.6" fill="#1F2937" stroke="#1F2937" stroke-width="4.3" stroke-linejoin="round" stroke-linecap="round"/><circle cx="452.7" cy="306.1" r="15.4" fill="#1F2937" stroke="#1F2937" stroke-width="4.3" stroke-linejoin="round" stroke-linecap="round"/><circle cx="476.4" cy="521" r="20.3" fill="#1F2937" stroke="#1F2937" stroke-width="4.3" stroke-linejoin="round" stroke-linecap="round"/><circle cx="547.6" cy="373.4" r="29.6" fill="#1F2937" stroke="#1F2937" stroke-width="4.3" stroke-linejoin="round" stroke-linecap="round"/><circle cx="571.3" cy="306.1" r="15.4" fill="#1F2937" stroke="#1F2937" stroke-width="4.3" stroke-linejoin="round" stroke-linecap="round"/><circle cx="547.6" cy="521" r="20.3" fill="#1F2937" stroke="#1F2937" stroke-width="4.3" stroke-linejoin="round" stroke-linecap="round"/><ellipse cx="512" cy="138.5" rx="26.2" ry="38.5" fill="#1F2937" stroke="#1F2937" stroke-width="4.3" stroke-linejoin="round" stroke-linecap="round" transform="rotate(0 512 138.5)"/><path d="M 446.8,373.4 L 457.4,521 A 19 19 0 0 1 495.4,521 L 506.1,373.4 A 29.6 29.6 0 0 1 446.8,373.4 Z" fill="#E5E7EB"/><path d="M 456.3,521 L 466.9,669 A 9.5 9.5 0 0 1 485.9,669 L 496.6,521 A 20.2 20.2 0 0 1 456.3,521 Z" fill="#E5E7EB"/><ellipse cx="476.4" cy="679.8" rx="14.8" ry="10.4" fill="#E5E7EB"/><path d="M 517.9,373.4 L 528.6,521 A 19 19 0 0 1 566.6,521 L 577.2,373.4 A 29.6 29.6 0 0 1 517.9,373.4 Z" fill="#E5E7EB"/><path d="M 527.4,521 L 538.1,669 A 9.5 9.5 0 0 1 557.1,669 L 567.7,521 A 20.2 20.2 0 0 1 527.4,521 Z" fill="#E5E7EB"/><ellipse cx="547.6" cy="679.8" rx="14.8" ry="10.4" fill="#E5E7EB"/><path d="M 572.8,373.4 Q 571,339 560.5,316.6 Q 550,294.3 551.7,273.6 Q 553.5,253 560.3,237.5 Q 567.2,222 564.7,211.7 L 562.2,201.4 Q 512,195.1 461.8,201.4 Q 456.8,222 463.7,237.5 Q 470.5,253 472.3,273.6 Q 474,294.3 463.5,316.6 Q 453,339 452.1,356.2 L 451.2,373.4 Q 512,377 572.8,373.4 Z" fill="#E5E7EB"/><path d="M 522.7,201.4 L 522.1,177.1 A 10.1 10.1 0 0 1 501.9,177.1 L 501.3,201.4 A 10.7 10.7 0 0 1 522.7,201.4 Z" fill="#E5E7EB"/><path d="M 496.8,191.7 L 443.8,199.2 A 18.4 18.4 0 0 1 454.5,234.4 L 502.7,211.1 A 10.1 10.1 0 0 1 496.8,191.7 Z" fill="#E5E7EB"/><path d="M 432.6,217.5 L 440.3,306.6 A 12.5 12.5 0 0 1 465.1,305.6 L 465.7,216.2 A 16.6 16.6 0 0 1 432.6,217.5 Z" fill="#E5E7EB"/><circle cx="449.1" cy="216.8" r="18.4" fill="#E5E7EB"/><path d="M 521.3,211.1 L 569.5,234.4 A 18.4 18.4 0 0 1 580.2,199.2 L 527.2,191.7 A 10.1 10.1 0 0 1 521.3,211.1 Z" fill="#E5E7EB"/><path d="M 558.3,216.2 L 558.9,305.6 A 12.5 12.5 0 0 1 583.7,306.6 L 591.4,217.5 A 16.6 16.6 0 0 1 558.3,216.2 Z" fill="#E5E7EB"/><circle cx="574.9" cy="216.8" r="18.4" fill="#E5E7EB"/><path d="M 439.1,306.1 L 443.8,400.3 A 8.9 8.9 0 0 1 461.6,400.3 L 466.3,306.1 A 13.6 13.6 0 0 1 439.1,306.1 Z" fill="#E5E7EB"/><path d="M 448,400.3 L 443.2,422 L 445.3,443.7 Q 452.7,451.4 460.1,443.7 L 462.2,422 L 457.4,400.3 Q 452.7,396.9 448,400.3 Z" fill="#E5E7EB"/><path d="M 557.7,306.1 L 562.4,400.3 A 8.9 8.9 0 0 1 580.2,400.3 L 584.9,306.1 A 13.6 13.6 0 0 1 557.7,306.1 Z" fill="#E5E7EB"/><path d="M 566.6,400.3 L 561.8,422 L 563.9,443.7 Q 571.3,451.4 578.7,443.7 L 580.8,422 L 576,400.3 Q 571.3,396.9 566.6,400.3 Z" fill="#E5E7EB"/><circle cx="476.4" cy="373.4" r="29.6" fill="#E5E7EB"/><circle cx="452.7" cy="306.1" r="15.4" fill="#E5E7EB"/><circle cx="476.4" cy="521" r="20.3" fill="#E5E7EB"/><circle cx="547.6" cy="373.4" r="29.6" fill="#E5E7EB"/><circle cx="571.3" cy="306.1" r="15.4" fill="#E5E7EB"/><circle cx="547.6" cy="521" r="20.3" fill="#E5E7EB"/><ellipse cx="512" cy="138.5" rx="26.2" ry="38.5" fill="#E5E7EB" transform="rotate(0 512 138.5)"/>
</svg>
