<svg xmlns="http://www.w3.org/2000/svg" viewBox="0 0 1024 768" role="img" aria-labelledby="skt"><title id="skt">squat skeleton</title>
  <defs><path id="FT" d="M 8,-6 C 34,-6 50,0 57,9 C 63,13 61,21 51,21 L -8,21 C -18,21 -18,-3 -9,-5 Z"/></defs>
  <g transform="translate(384.5 724.1) scale(1.185)" stroke-linecap="round" stroke-linejoin="round">
      <line x1="0" y1="-300" x2="55.9" y2="-465.8" stroke="#1F2937" stroke-width="3"/><line x1="55.9" y1="-465.8" x2="64.2" y2="-490.5" stroke="#1F2937" stroke-width="3"/><line x1="64.2" y1="-490.5" x2="76.3" y2="-526.5" stroke="#1F2937" stroke-width="3"/><line x1="0" y1="-300" x2="8.0" y2="-300.0" stroke="#1F2937" stroke-width="3"/><line x1="0" y1="-300" x2="8.0" y2="-300.0" stroke="#1F2937" stroke-width="3"/><line x1="55.9" y1="-465.8" x2="75.8" y2="-471.5" stroke="#1F2937" stroke-width="3"/><line x1="55.9" y1="-465.8" x2="75.8" y2="-471.5" stroke="#1F2937" stroke-width="3"/><line x1="8.0" y1="-300.0" x2="90.7" y2="-173.7" stroke="#1F2937" stroke-width="3"/><line x1="90.7" y1="-173.7" x2="83.2" y2="-22.9" stroke="#1F2937" stroke-width="3"/><line x1="83.2" y1="-22.9" x2="146.1" y2="-20.3" stroke="#1F2937" stroke-width="3"/><line x1="8.0" y1="-300.0" x2="90.7" y2="-173.7" stroke="#1F2937" stroke-width="3"/><line x1="90.7" y1="-173.7" x2="83.2" y2="-22.9" stroke="#1F2937" stroke-width="3"/><line x1="83.2" y1="-22.9" x2="146.1" y2="-20.3" stroke="#1F2937" stroke-width="3"/><line x1="75.8" y1="-471.5" x2="125.2" y2="-366.6" stroke="#1F2937" stroke-width="3"/><line x1="125.2" y1="-366.6" x2="215.0" y2="-361.8" stroke="#1F2937" stroke-width="3"/><line x1="75.8" y1="-471.5" x2="125.2" y2="-366.6" stroke="#1F2937" stroke-width="3"/><line x1="125.2" y1="-366.6" x2="215.0" y2="-361.8" stroke="#1F2937" stroke-width="3"/><circle cx="0" cy="-300" r="7" fill="#2563EB"/><circle cx="55.9" cy="-465.8" r="7" fill="#2563EB"/><circle cx="64.2" cy="-490.5" r="7" fill="#2563EB"/><circle cx="8.0" cy="-300.0" r="7" fill="#2563EB"/><circle cx="8.0" cy="-300.0" r="7" fill="#2563EB"/><circle cx="75.8" cy="-471.5" r="7" fill="#2563EB"/><circle cx="75.8" cy="-471.5" r="7" fill="#2563EB"/><circle cx="125.2" cy="-366.6" r="7" fill="#2563EB"/><circle cx="215.0" cy="-361.8" r="7" fill="#2563EB"/><circle cx="125.2" cy="-366.6" r="7" fill="#2563EB"/><circle cx="215.0" cy="-361.8" r="7" fill="#2563EB"/><circle cx="90.7" cy="-173.7" r="7" fill="#2563EB"/><circle cx="83.2" cy="-22.9" r="7" fill="#2563EB"/><circle cx="90.7" cy="-173.7" r="7" fill="#2563EB"/><circle cx="83.2" cy="-22.9" r="7" fill="#2563EB"/>
      <circle cx="76.3" cy="-526.5" r="32" fill="none" stroke="#2563EB" stroke-width="3"/>
  </g></svg>
