<svg xmlns="http://www.w3.org/2000/svg" viewBox="0 0 1024 768" role="img" aria-labelledby="skt"><title id="skt">skeleton front</title>
  <defs><path id="FT" d="M 8,-6 C 34,-6 50,0 57,9 C 63,13 61,21 51,21 L -8,21 C -18,21 -18,-3 -9,-5 Z"/></defs>
  <g transform="translate(512.0 378.3) scale(1.014)" stroke-linecap="round" stroke-linejoin="round">
      <line x1="0" y1="0" x2="0.0" y2="-198.0" stroke="#1F2937" stroke-width="3"/><line x1="0.0" y1="-198.0" x2="0.0" y2="-231.7" stroke="#1F2937" stroke-width="3"/><line x1="0.0" y1="-231.7" x2="0.0" y2="-274.6" stroke="#1F2937" stroke-width="3"/><line x1="-37.3" y1="-0.0" x2="37.3" y2="-0.0" stroke="#1F2937" stroke-width="3"/><line x1="-80.8" y1="-198.0" x2="80.8" y2="-198.0" stroke="#1F2937" stroke-width="3"/><line x1="0.0" y1="-198.0" x2="-80.8" y2="-198.0" stroke="#1F2937" stroke-width="3"/><line x1="0.0" y1="-198.0" x2="80.8" y2="-198.0" stroke="#1F2937" stroke-width="3"/><line x1="0" y1="0" x2="-37.3" y2="-0.0" stroke="#1F2937" stroke-width="3"/><line x1="0" y1="0" x2="37.3" y2="-0.0" stroke="#1F2937" stroke-width="3"/><line x1="-37.3" y1="-0.0" x2="-37.3" y2="153.1" stroke="#1F2937" stroke-width="3"/><line x1="-37.3" y1="153.1" x2="-37.3" y2="315.9" stroke="#1F2937" stroke-width="3"/><line x1="-37.3" y1="315.9" x2="-37.3" y2="317.4" stroke="#1F2937" stroke-width="3"/><line x1="37.3" y1="-0.0" x2="37.3" y2="153.1" stroke="#1F2937" stroke-width="3"/><line x1="37.3" y1="153.1" x2="37.3" y2="315.9" stroke="#1F2937" stroke-width="3"/><line x1="37.3" y1="315.9" x2="37.3" y2="317.4" stroke="#1F2937" stroke-width="3"/><line x1="-80.8" y1="-198.0" x2="-80.8" y2="-82.1" stroke="#1F2937" stroke-width="3"/><line x1="-80.8" y1="-82.1" x2="-80.8" y2="20.7" stroke="#1F2937" stroke-width="3"/><line x1="-80.8" y1="20.7" x2="-80.8" y2="74.4" stroke="#1F2937" stroke-width="3"/><line x1="80.8" y1="-198.0" x2="80.8" y2="-82.1" stroke="#1F2937" stroke-width="3"/><line x1="80.8" y1="-82.1" x2="80.8" y2="20.7" stroke="#1F2937" stroke-width="3"/><line x1="80.8" y1="20.7" x2="80.8" y2="74.4" stroke="#1F2937" stroke-width="3"/><circle cx="0" cy="0" r="7" fill="#2563EB"/><circle cx="0.0" cy="-198.0" r="7" fill="#2563EB"/><circle cx="0.0" cy="-231.7" r="7" fill="#2563EB"/><circle cx="-37.3" cy="-0.0" r="7" fill="#2563EB"/><circle cx="37.3" cy="-0.0" r="7" fill="#2563EB"/><circle cx="-80.8" cy="-198.0" r="7" fill="#2563EB"/><circle cx="80.8" cy="-198.0" r="7" fill="#2563EB"/><circle cx="-80.8" cy="-82.1" r="7" fill="#2563EB"/><circle cx="-80.8" cy="20.7" r="7" fill="#2563EB"/><circle cx="-80.8" cy="74.4" r="7" fill="#2563EB"/><circle cx="80.8" cy="-82.1" r="7" fill="#2563EB"/><circle cx="80.8" cy="20.7" r="7" fill="#2563EB"/><circle cx="80.8" cy="74.4" r="7" fill="#2563EB"/><circle cx="-37.3" cy="153.1" r="7" fill="#2563EB"/><circle cx="-37.3" cy="315.9" r="7" fill="#2563EB"/><circle cx="37.3" cy="153.1" r="7" fill="#2563EB"/><circle cx="37.3" cy="315.9" r="7" fill="#2563EB"/>
      <circle cx="0.0" cy="-274.6" r="42.9" fill="none" stroke="#2563EB" stroke-width="3"/>
  </g></svg>
