<svg xmlns="http://www.w3.org/2000/svg" viewBox="0 0 1024 768" role="img" aria-labelledby="skt"><title id="skt">pushup skeleton</title>
  <defs><path id="FT" d="M 8,-6 C 34,-6 50,0 57,9 C 63,13 61,21 51,21 L -8,21 C -18,21 -18,-3 -9,-5 Z"/></defs>
  <g transform="translate(457.0 484.2) scale(1.25)" stroke-linecap="round" stroke-linejoin="round">
      <line x1="0" y1="0" x2="-168.0" y2="-49.0" stroke="#1F2937" stroke-width="3"/><line x1="-168.0" y1="-49.0" x2="-193.0" y2="-56.3" stroke="#1F2937" stroke-width="3"/><line x1="-193.0" y1="-56.3" x2="-229.4" y2="-66.9" stroke="#1F2937" stroke-width="3"/><line x1="0" y1="0" x2="-2.2" y2="7.7" stroke="#1F2937" stroke-width="3"/><line x1="0" y1="0" x2="-2.2" y2="7.7" stroke="#1F2937" stroke-width="3"/><line x1="-168.0" y1="-49.0" x2="-178.6" y2="-33.4" stroke="#1F2937" stroke-width="3"/><line x1="-168.0" y1="-49.0" x2="-178.6" y2="-33.4" stroke="#1F2937" stroke-width="3"/><line x1="-2.2" y1="7.7" x2="141.8" y2="53.2" stroke="#1F2937" stroke-width="3"/><line x1="141.8" y1="53.2" x2="285.8" y2="98.6" stroke="#1F2937" stroke-width="3"/><line x1="285.8" y1="98.6" x2="317.5" y2="153.1" stroke="#1F2937" stroke-width="3"/><line x1="-2.2" y1="7.7" x2="141.8" y2="53.2" stroke="#1F2937" stroke-width="3"/><line x1="141.8" y1="53.2" x2="285.8" y2="98.6" stroke="#1F2937" stroke-width="3"/><line x1="285.8" y1="98.6" x2="317.5" y2="153.1" stroke="#1F2937" stroke-width="3"/><line x1="-178.6" y1="-33.4" x2="-178.6" y2="82.6" stroke="#1F2937" stroke-width="3"/><line x1="-178.6" y1="82.6" x2="-178.6" y2="172.6" stroke="#1F2937" stroke-width="3"/><line x1="-178.6" y1="-33.4" x2="-178.6" y2="82.6" stroke="#1F2937" stroke-width="3"/><line x1="-178.6" y1="82.6" x2="-178.6" y2="172.6" stroke="#1F2937" stroke-width="3"/><circle cx="0" cy="0" r="7" fill="#2563EB"/><circle cx="-168.0" cy="-49.0" r="7" fill="#2563EB"/><circle cx="-193.0" cy="-56.3" r="7" fill="#2563EB"/><circle cx="-2.2" cy="7.7" r="7" fill="#2563EB"/><circle cx="-2.2" cy="7.7" r="7" fill="#2563EB"/><circle cx="-178.6" cy="-33.4" r="7" fill="#2563EB"/><circle cx="-178.6" cy="-33.4" r="7" fill="#2563EB"/><circle cx="-178.6" cy="82.6" r="7" fill="#2563EB"/><circle cx="-178.6" cy="172.6" r="7" fill="#2563EB"/><circle cx="-178.6" cy="82.6" r="7" fill="#2563EB"/><circle cx="-178.6" cy="172.6" r="7" fill="#2563EB"/><circle cx="141.8" cy="53.2" r="7" fill="#2563EB"/><circle cx="285.8" cy="98.6" r="7" fill="#2563EB"/><circle cx="141.8" cy="53.2" r="7" fill="#2563EB"/><circle cx="285.8" cy="98.6" r="7" fill="#2563EB"/>
      <circle cx="-229.4" cy="-66.9" r="32" fill="none" stroke="#2563EB" stroke-width="3"/>
  </g></svg>
