<svg xmlns="http://www.w3.org/2000/svg" viewBox="0 0 1024 768" role="img" aria-labelledby="C03t"><title id="C03t">C03_flutter_kicks</title>
  <defs><path id="FT" d="M 8,-6 C 34,-6 50,0 57,9 C 63,13 61,21 51,21 L -8,21 C -18,21 -18,-3 -9,-5 Z"/><marker id="ah" markerUnits="userSpaceOnUse" markerWidth="26" markerHeight="26" refX="18" refY="13" orient="auto-start-reverse"><path d="M5,3 L21,13 L5,23" fill="none" stroke="#2563EB" stroke-width="5" stroke-linecap="round" stroke-linejoin="round"/></marker></defs>
  <g><line x1="112.8" y1="702" x2="911.2" y2="702" stroke="#1F2937" stroke-width="4" stroke-linecap="round" opacity="0.45"/></g><path d="M 571.3,666.7 L 645.8,490 A 28.1 28.1 0 0 1 595.8,464.6 L 497.6,629.5 A 41.3 41.3 0 0 1 571.3,666.7 Z" fill="#1F2937" stroke="#1F2937" stroke-width="6" stroke-linejoin="round" stroke-linecap="round"/><path d="M 648.7,493.3 L 735.8,308.3 A 15.7 15.7 0 0 1 708.6,292.7 L 592.9,461.3 A 32.2 32.2 0 0 1 648.7,493.3 Z" fill="#1F2937" stroke="#1F2937" stroke-width="6" stroke-linejoin="round" stroke-linecap="round"/><path d="M 707.1,316.5 Q 710.1,328.1 725.6,335.9 L 791.6,239.9 Q 795.7,231.8 771.8,234.6 Q 735,270.6 707.1,316.5 Z" fill="#1F2937" stroke="#1F2937" stroke-width="6" stroke-linejoin="round" stroke-linecap="round"/><path d="M 565.4,675.4 L 682,522.9 A 28.1 28.1 0 0 1 639.8,485.9 L 503.5,620.9 A 41.3 41.3 0 0 1 565.4,675.4 Z" fill="#1F2937" stroke="#1F2937" stroke-width="6" stroke-linejoin="round" stroke-linecap="round"/><path d="M 683.9,526.9 L 814.5,369.7 A 15.7 15.7 0 0 1 792.1,347.7 L 637.9,481.9 A 32.2 32.2 0 0 1 683.9,526.9 Z" fill="#1F2937" stroke="#1F2937" stroke-width="6" stroke-linejoin="round" stroke-linecap="round"/><path d="M 784.8,370.4 Q 784.8,382.4 797.8,393.8 L 885.8,317.4 Q 891.8,310.7 867.9,307.4 Q 823.2,332.9 784.8,370.4 Z" fill="#1F2937" stroke="#1F2937" stroke-width="6" stroke-linejoin="round" stroke-linecap="round"/><path d="M 542.1,604.9 Q 493.3,596.3 461.1,593.7 Q 428.9,591.1 400,584.1 Q 371,577.1 350.5,565.2 Q 330,553.2 315.4,550.7 L 300.8,548.1 Q 282.1,603.6 280.7,662.2 Q 309.9,667.3 333.3,663.1 Q 356.6,658.9 386.2,662.2 Q 415.8,665.5 446.9,674.1 Q 478.1,682.7 502.5,687 L 526.8,691.3 Q 539.4,649 542.1,604.9 Z" fill="#1F2937" stroke="#1F2937" stroke-width="6" stroke-linejoin="round" stroke-linecap="round"/><path d="M 293.9,587.3 L 252.3,580.8 A 17.2 17.2 0 0 1 246.3,614.8 L 287.6,623 A 18.2 18.2 0 0 1 293.9,587.3 Z" fill="#1F2937" stroke="#1F2937" stroke-width="6" stroke-linejoin="round" stroke-linecap="round"/><circle cx="298.8" cy="606.6" r="31.4" fill="#1F2937" stroke="#1F2937" stroke-width="6" stroke-linejoin="round" stroke-linecap="round"/><path d="M 307.6,636 L 436.4,625.7 A 20.6 20.6 0 0 1 435.5,584.5 L 306.3,579.9 A 28.1 28.1 0 0 1 307.6,636 Z" fill="#1F2937" stroke="#1F2937" stroke-width="6" stroke-linejoin="round" stroke-linecap="round"/><circle cx="307" cy="608" r="31.4" fill="#1F2937" stroke="#1F2937" stroke-width="6" stroke-linejoin="round" stroke-linecap="round"/><path d="M 453.4,591.4 L 367.6,494.1 A 14.8 14.8 0 0 1 344.3,512.4 L 418.4,618.9 A 22.3 22.3 0 0 1 453.4,591.4 Z" fill="#1F2937" stroke="#1F2937" stroke-width="6" stroke-linejoin="round" stroke-linecap="round"/><path d="M 362.1,498.4 L 349.5,469.6 L 328,447.8 Q 311.7,446.8 308.7,462.9 L 324.8,489 L 349.8,508.1 Q 359.3,507.5 362.1,498.4 Z" fill="#1F2937" stroke="#1F2937" stroke-width="6" stroke-linejoin="round" stroke-linecap="round"/><circle cx="355.8" cy="475.8" r="7.4" fill="#1F2937" stroke="#1F2937" stroke-width="6" stroke-linejoin="round" stroke-linecap="round"/><circle cx="534.4" cy="648.1" r="38" fill="#1F2937" stroke="#1F2937" stroke-width="6" stroke-linejoin="round" stroke-linecap="round"/><circle cx="435.9" cy="605.1" r="25.3" fill="#1F2937" stroke="#1F2937" stroke-width="6" stroke-linejoin="round" stroke-linecap="round"/><circle cx="620.8" cy="477.3" r="33.1" fill="#1F2937" stroke="#1F2937" stroke-width="6" stroke-linejoin="round" stroke-linecap="round"/><circle cx="660.9" cy="504.4" r="33.1" fill="#1F2937" stroke="#1F2937" stroke-width="6" stroke-linejoin="round" stroke-linecap="round"/><ellipse cx="196.5" cy="588.5" rx="36.5" ry="53.6" fill="#1F2937" stroke="#1F2937" stroke-width="6" stroke-linejoin="round" stroke-linecap="round" transform="rotate(-80 196.5 588.5)"/><path d="M 571.3,666.7 L 645.8,490 A 28.1 28.1 0 0 1 595.8,464.6 L 497.6,629.5 A 41.3 41.3 0 0 1 571.3,666.7 Z" fill="#E5E7EB"/><path d="M 648.7,493.3 L 735.8,308.3 A 15.7 15.7 0 0 1 708.6,292.7 L 592.9,461.3 A 32.2 32.2 0 0 1 648.7,493.3 Z" fill="#E5E7EB"/><path d="M 707.1,316.5 Q 710.1,328.1 725.6,335.9 L 791.6,239.9 Q 795.7,231.8 771.8,234.6 Q 735,270.6 707.1,316.5 Z" fill="#E5E7EB"/><path d="M 565.4,675.4 L 682,522.9 A 28.1 28.1 0 0 1 639.8,485.9 L 503.5,620.9 A 41.3 41.3 0 0 1 565.4,675.4 Z" fill="#E5E7EB"/><path d="M 683.9,526.9 L 814.5,369.7 A 15.7 15.7 0 0 1 792.1,347.7 L 637.9,481.9 A 32.2 32.2 0 0 1 683.9,526.9 Z" fill="#E5E7EB"/><path d="M 784.8,370.4 Q 784.8,382.4 797.8,393.8 L 885.8,317.4 Q 891.8,310.7 867.9,307.4 Q 823.2,332.9 784.8,370.4 Z" fill="#E5E7EB"/><path d="M 542.1,604.9 Q 493.3,596.3 461.1,593.7 Q 428.9,591.1 400,584.1 Q 371,577.1 350.5,565.2 Q 330,553.2 315.4,550.7 L 300.8,548.1 Q 282.1,603.6 280.7,662.2 Q 309.9,667.3 333.3,663.1 Q 356.6,658.9 386.2,662.2 Q 415.8,665.5 446.9,674.1 Q 478.1,682.7 502.5,687 L 526.8,691.3 Q 539.4,649 542.1,604.9 Z" fill="#E5E7EB"/><path d="M 293.9,587.3 L 252.3,580.8 A 17.2 17.2 0 0 1 246.3,614.8 L 287.6,623 A 18.2 18.2 0 0 1 293.9,587.3 Z" fill="#E5E7EB"/><circle cx="298.8" cy="606.6" r="31.4" fill="#E5E7EB"/><path d="M 307.6,636 L 436.4,625.7 A 20.6 20.6 0 0 1 435.5,584.5 L 306.3,579.9 A 28.1 28.1 0 0 1 307.6,636 Z" fill="#E5E7EB"/><circle cx="307" cy="608" r="31.4" fill="#E5E7EB"/><path d="M 453.4,591.4 L 367.6,494.1 A 14.8 14.8 0 0 1 344.3,512.4 L 418.4,618.9 A 22.3 22.3 0 0 1 453.4,591.4 Z" fill="#E5E7EB"/><path d="M 362.1,498.4 L 349.5,469.6 L 328,447.8 Q 311.7,446.8 308.7,462.9 L 324.8,489 L 349.8,508.1 Q 359.3,507.5 362.1,498.4 Z" fill="#E5E7EB"/><circle cx="355.8" cy="475.8" r="7.4" fill="#E5E7EB"/><circle cx="534.4" cy="648.1" r="38" fill="#E5E7EB"/><circle cx="435.9" cy="605.1" r="25.3" fill="#E5E7EB"/><circle cx="620.8" cy="477.3" r="33.1" fill="#E5E7EB"/><circle cx="660.9" cy="504.4" r="33.1" fill="#E5E7EB"/><ellipse cx="196.5" cy="588.5" rx="36.5" ry="53.6" fill="#E5E7EB" transform="rotate(-80 196.5 588.5)"/><path d="M 742.6,191.3 L 742.6,291.3" fill="none" stroke="#2563EB" stroke-width="6" marker-start="url(#ah)" marker-end="url(#ah)"/><path d="M 870.8,255.9 L 870.8,355.9" fill="none" stroke="#2563EB" stroke-width="6" marker-start="url(#ah)" marker-end="url(#ah)"/><line x1="534.4" y1="648.1" x2="415.7" y2="648.1" stroke="#10B981" stroke-width="4" stroke-dasharray="2 14"/>
</svg>
