<svg xmlns="http://www.w3.org/2000/svg" viewBox="0 0 1024 768" role="img" aria-labelledby="C04t"><title id="C04t">C04_dead_bug</title>
  <defs><path id="FT" d="M 8,-6 C 34,-6 50,0 57,9 C 63,13 61,21 51,21 L -8,21 C -18,21 -18,-3 -9,-5 Z"/><marker id="ah" markerUnits="userSpaceOnUse" markerWidth="26" markerHeight="26" refX="18" refY="13" orient="auto-start-reverse"><path d="M5,3 L21,13 L5,23" fill="none" stroke="#2563EB" stroke-width="5" stroke-linecap="round" stroke-linejoin="round"/></marker></defs>
  <g><line x1="60" y1="702.0" x2="964" y2="702.0" stroke="#1F2937" stroke-width="4" stroke-linecap="round" opacity="0.45"/></g>
  <g transform="translate(515.1 672.1) scale(1.073)" stroke-linecap="round" stroke-linejoin="round">
      <path d="M -175.0,-0.0 L -181.0,-18.0" fill="none" stroke="#1F2937" stroke-width="40"/><path d="M -175.0,-0.0 L -181.0,-18.0" fill="none" stroke="#E5E7EB" stroke-width="28"/>
      <path d="M -181.0,-18.0 L -289.1,-60.0 L -373.0,-92.7" fill="none" stroke="#1F2937" stroke-width="40"/><path d="M -181.0,-18.0 L -289.1,-60.0 L -373.0,-92.7" fill="none" stroke="#E5E7EB" stroke-width="28"/>
      <circle cx="-181.0" cy="-18.0" r="17" fill="#E5E7EB" stroke="#1F2937" stroke-width="6"/>
      <circle cx="-289.1" cy="-60.0" r="15" fill="#E5E7EB" stroke="#1F2937" stroke-width="6"/>
      <path d="M 0.0,-8.0 L 149.8,-26.9 L 299.6,-45.8" fill="none" stroke="#1F2937" stroke-width="40"/><path d="M 0.0,-8.0 L 149.8,-26.9 L 299.6,-45.8" fill="none" stroke="#E5E7EB" stroke-width="28"/>
      <use href="#FT" transform="translate(299.6 -45.8) rotate(-7.2)" fill="#E5E7EB" stroke="#1F2937" stroke-width="6"/>
      <circle cx="0.0" cy="-8.0" r="17" fill="#E5E7EB" stroke="#1F2937" stroke-width="6"/>
      <circle cx="149.8" cy="-26.9" r="15" fill="#E5E7EB" stroke="#1F2937" stroke-width="6"/>
      <path d="M -175.0,-0.0 L -201.0,-0.0" fill="none" stroke="#1F2937" stroke-width="40"/><path d="M -175.0,-0.0 L -201.0,-0.0" fill="none" stroke="#E5E7EB" stroke-width="28"/>
      <path d="M 0.0,-23.0 L -78.8,-17.9 L -143.5,-25.0 L -175.0,-26.0 Q -183.0,-0.0 -175.0,26.0 L -143.5,25.0 L -78.8,17.9 L 0.0,23.0 Q 10.0,0.0 0.0,-23.0 Z" fill="#E5E7EB" stroke="#1F2937" stroke-width="6" stroke-linejoin="round"/>
      <ellipse cx="-239.0" cy="-0.0" rx="29" ry="41" fill="#E5E7EB" stroke="#1F2937" stroke-width="6" transform="rotate(-90.0 -239.0 -0.0)"/>
      <path d="M 0.0,-8.0 L 22.4,-157.3 L 173.1,-166.8" fill="none" stroke="#1F2937" stroke-width="40"/><path d="M 0.0,-8.0 L 22.4,-157.3 L 173.1,-166.8" fill="none" stroke="#E5E7EB" stroke-width="28"/>
      <use href="#FT" transform="translate(173.1 -166.8) rotate(-3.6)" fill="#E5E7EB" stroke="#1F2937" stroke-width="6"/>
      <circle cx="0.0" cy="-8.0" r="17" fill="#E5E7EB" stroke="#1F2937" stroke-width="6"/>
      <circle cx="22.4" cy="-157.3" r="15" fill="#E5E7EB" stroke="#1F2937" stroke-width="6"/>
      <path d="M -175.0,-0.0 L -181.0,-18.0" fill="none" stroke="#1F2937" stroke-width="40"/><path d="M -175.0,-0.0 L -181.0,-18.0" fill="none" stroke="#E5E7EB" stroke-width="28"/>
      <path d="M -181.0,-18.0 L -167.2,-133.2 L -156.5,-222.5" fill="none" stroke="#1F2937" stroke-width="40"/><path d="M -181.0,-18.0 L -167.2,-133.2 L -156.5,-222.5" fill="none" stroke="#E5E7EB" stroke-width="28"/>
      <circle cx="-181.0" cy="-18.0" r="17" fill="#E5E7EB" stroke="#1F2937" stroke-width="6"/>
      <circle cx="-167.2" cy="-133.2" r="15" fill="#E5E7EB" stroke="#1F2937" stroke-width="6"/>
      <line x1="0" y1="0" x2="-80" y2="0" stroke="#10B981" stroke-width="4" stroke-dasharray="2 14"/>
      <path d="M -353.0,-102.7 L -413.0,-127.7" fill="none" stroke="#2563EB" stroke-width="6" marker-end="url(#ah)"/>
      <path d="M 352.1,-61.7 L 407.1,-33.7" fill="none" stroke="#2563EB" stroke-width="6" marker-end="url(#ah)"/>
  </g></svg>
