<svg xmlns="http://www.w3.org/2000/svg" viewBox="0 0 1024 768" role="img" aria-labelledby="M01t"><title id="M01t">M01_push_up</title>
  <defs><path id="FT" d="M 8,-6 C 34,-6 50,0 57,9 C 63,13 61,21 51,21 L -8,21 C -18,21 -18,-3 -9,-5 Z"/><marker id="ah" markerUnits="userSpaceOnUse" markerWidth="26" markerHeight="26" refX="18" refY="13" orient="auto-start-reverse"><path d="M5,3 L21,13 L5,23" fill="none" stroke="#2563EB" stroke-width="5" stroke-linecap="round" stroke-linejoin="round"/></marker></defs>
  <g><line x1="65.2" y1="702" x2="958.8" y2="702" stroke="#1F2937" stroke-width="4" stroke-linecap="round" opacity="0.45"/></g><path d="M 465.9,435.2 L 652.4,480.2 A 28.1 28.1 0 0 1 669.3,426.7 L 490.8,356.5 A 41.3 41.3 0 0 1 465.9,435.2 Z" fill="#1F2937" stroke="#1F2937" stroke-width="6" stroke-linejoin="round" stroke-linecap="round"/><path d="M 652.8,484.6 L 854.2,519.8 A 15.7 15.7 0 0 1 862,489.4 L 668.9,422.3 A 32.2 32.2 0 0 1 652.8,484.6 Z" fill="#1F2937" stroke="#1F2937" stroke-width="6" stroke-linejoin="round" stroke-linecap="round"/><path d="M 842.2,489.6 Q 844.5,477.8 859.5,469.1 L 931,561.1 Q 935.6,568.9 911.5,567.5 Q 872.6,533.7 842.2,489.6 Z" fill="#1F2937" stroke="#1F2937" stroke-width="6" stroke-linejoin="round" stroke-linecap="round"/><path d="M 490.8,353.1 Q 443.3,339.2 411.5,333.2 Q 379.8,327.1 351.8,317 Q 323.8,306.8 304.8,292.6 Q 285.7,278.4 271.5,274.2 L 257.2,270.1 Q 232.3,324.1 224.3,383 Q 252.8,391.3 276.5,389.6 Q 300.2,387.8 329.2,394.3 Q 358.3,400.8 388.3,412.8 Q 418.3,424.8 442.1,431.7 L 465.9,438.6 Q 483.1,397.2 490.8,353.1 Z" fill="#1F2937" stroke="#1F2937" stroke-width="6" stroke-linejoin="round" stroke-linecap="round"/><path d="M 245.8,309.1 L 205.2,298.2 A 17.2 17.2 0 0 1 195.5,331.3 L 235.6,344 A 18.2 18.2 0 0 1 245.8,309.1 Z" fill="#1F2937" stroke="#1F2937" stroke-width="6" stroke-linejoin="round" stroke-linecap="round"/><circle cx="248.7" cy="328.9" r="31.4" fill="#1F2937" stroke="#1F2937" stroke-width="6" stroke-linejoin="round" stroke-linecap="round"/><path d="M 228.7,328 L 220.2,469.4 A 20.6 20.6 0 0 1 261.2,474.1 L 284.4,334.3 A 28.1 28.1 0 0 1 228.7,328 Z" fill="#1F2937" stroke="#1F2937" stroke-width="6" stroke-linejoin="round" stroke-linecap="round"/><circle cx="256.6" cy="331.2" r="31.4" fill="#1F2937" stroke="#1F2937" stroke-width="6" stroke-linejoin="round" stroke-linecap="round"/><path d="M 218.5,470.6 L 219.1,600.3 A 14.8 14.8 0 0 1 248.8,601.9 L 263,472.9 A 22.3 22.3 0 0 1 218.5,470.6 Z" fill="#1F2937" stroke="#1F2937" stroke-width="6" stroke-linejoin="round" stroke-linecap="round"/><path d="M 226.1,600.7 L 216.7,630.7 L 218.6,661.3 Q 230.2,672.7 243,662.5 L 248,632.3 L 241.8,601.5 Q 234.2,595.6 226.1,600.7 Z" fill="#1F2937" stroke="#1F2937" stroke-width="6" stroke-linejoin="round" stroke-linecap="round"/><circle cx="478.3" cy="395.8" r="38" fill="#1F2937" stroke="#1F2937" stroke-width="6" stroke-linejoin="round" stroke-linecap="round"/><circle cx="240.7" cy="471.7" r="25.3" fill="#1F2937" stroke="#1F2937" stroke-width="6" stroke-linejoin="round" stroke-linecap="round"/><circle cx="660.8" cy="453.5" r="33.1" fill="#1F2937" stroke="#1F2937" stroke-width="6" stroke-linejoin="round" stroke-linecap="round"/><ellipse cx="148.9" cy="299.7" rx="36.5" ry="53.6" fill="#1F2937" stroke="#1F2937" stroke-width="6" stroke-linejoin="round" stroke-linecap="round" transform="rotate(-73.7 148.9 299.7)"/><path d="M 465.9,435.2 L 652.4,480.2 A 28.1 28.1 0 0 1 669.3,426.7 L 490.8,356.5 A 41.3 41.3 0 0 1 465.9,435.2 Z" fill="#E5E7EB"/><path d="M 652.8,484.6 L 854.2,519.8 A 15.7 15.7 0 0 1 862,489.4 L 668.9,422.3 A 32.2 32.2 0 0 1 652.8,484.6 Z" fill="#E5E7EB"/><path d="M 842.2,489.6 Q 844.5,477.8 859.5,469.1 L 931,561.1 Q 935.6,568.9 911.5,567.5 Q 872.6,533.7 842.2,489.6 Z" fill="#E5E7EB"/><path d="M 490.8,353.1 Q 443.3,339.2 411.5,333.2 Q 379.8,327.1 351.8,317 Q 323.8,306.8 304.8,292.6 Q 285.7,278.4 271.5,274.2 L 257.2,270.1 Q 232.3,324.1 224.3,383 Q 252.8,391.3 276.5,389.6 Q 300.2,387.8 329.2,394.3 Q 358.3,400.8 388.3,412.8 Q 418.3,424.8 442.1,431.7 L 465.9,438.6 Q 483.1,397.2 490.8,353.1 Z" fill="#E5E7EB"/><path d="M 245.8,309.1 L 205.2,298.2 A 17.2 17.2 0 0 1 195.5,331.3 L 235.6,344 A 18.2 18.2 0 0 1 245.8,309.1 Z" fill="#E5E7EB"/><circle cx="248.7" cy="328.9" r="31.4" fill="#E5E7EB"/><path d="M 228.7,328 L 220.2,469.4 A 20.6 20.6 0 0 1 261.2,474.1 L 284.4,334.3 A 28.1 28.1 0 0 1 228.7,328 Z" fill="#E5E7EB"/><circle cx="256.6" cy="331.2" r="31.4" fill="#E5E7EB"/><path d="M 218.5,470.6 L 219.1,600.3 A 14.8 14.8 0 0 1 248.8,601.9 L 263,472.9 A 22.3 22.3 0 0 1 218.5,470.6 Z" fill="#E5E7EB"/><path d="M 226.1,600.7 L 216.7,630.7 L 218.6,661.3 Q 230.2,672.7 243,662.5 L 248,632.3 L 241.8,601.5 Q 234.2,595.6 226.1,600.7 Z" fill="#E5E7EB"/><circle cx="478.3" cy="395.8" r="38" fill="#E5E7EB"/><circle cx="240.7" cy="471.7" r="25.3" fill="#E5E7EB"/><circle cx="660.8" cy="453.5" r="33.1" fill="#E5E7EB"/><ellipse cx="148.9" cy="299.7" rx="36.5" ry="53.6" fill="#E5E7EB" transform="rotate(-73.7 148.9 299.7)"/><path d="M 153.2,270.3 L 153.2,420.3" fill="none" stroke="#2563EB" stroke-width="6" marker-start="url(#ah)" marker-end="url(#ah)"/><line x1="148.9" y1="299.7" x2="858.1" y2="504.6" stroke="#10B981" stroke-width="4" stroke-dasharray="2 14"/>
</svg>
