<svg xmlns="http://www.w3.org/2000/svg" viewBox="0 0 1024 768" role="img" aria-labelledby="W05t"><title id="W05t">W05_arm_circles</title>
  <defs><path id="FT" d="M 8,-6 C 34,-6 50,0 57,9 C 63,13 61,21 51,21 L -8,21 C -18,21 -18,-3 -9,-5 Z"/><marker id="ah" markerUnits="userSpaceOnUse" markerWidth="26" markerHeight="26" refX="18" refY="13" orient="auto-start-reverse"><path d="M5,3 L21,13 L5,23" fill="none" stroke="#2563EB" stroke-width="5" stroke-linecap="round" stroke-linejoin="round"/></marker></defs>
  <g><line x1="281.3" y1="702" x2="742.7" y2="702" stroke="#1F2937" stroke-width="4" stroke-linecap="round" opacity="0.45"/></g><path d="M 449.3,383 L 458.8,519.5 A 20 20 0 0 1 498.8,519.5 L 508.2,383 A 29.4 29.4 0 0 1 449.3,383 Z" fill="#1F2937" stroke="#1F2937" stroke-width="4.3" stroke-linejoin="round" stroke-linecap="round"/><path d="M 455.8,519.5 L 467.6,664.6 A 11.2 11.2 0 0 1 489.9,664.6 L 501.7,519.5 A 22.9 22.9 0 0 1 455.8,519.5 Z" fill="#1F2937" stroke="#1F2937" stroke-width="4.3" stroke-linejoin="round" stroke-linecap="round"/><ellipse cx="478.8" cy="675.3" rx="17.1" ry="11.9" fill="#1F2937" stroke="#1F2937" stroke-width="4.3" stroke-linejoin="round" stroke-linecap="round"/><path d="M 515.8,383 L 525.2,519.5 A 20 20 0 0 1 565.2,519.5 L 574.7,383 A 29.4 29.4 0 0 1 515.8,383 Z" fill="#1F2937" stroke="#1F2937" stroke-width="4.3" stroke-linejoin="round" stroke-linecap="round"/><path d="M 522.3,519.5 L 534.1,664.6 A 11.2 11.2 0 0 1 556.4,664.6 L 568.2,519.5 A 22.9 22.9 0 0 1 522.3,519.5 Z" fill="#1F2937" stroke="#1F2937" stroke-width="4.3" stroke-linejoin="round" stroke-linecap="round"/><ellipse cx="545.2" cy="675.3" rx="17.1" ry="11.9" fill="#1F2937" stroke="#1F2937" stroke-width="4.3" stroke-linejoin="round" stroke-linecap="round"/><path d="M 564.9,383 Q 563.4,347.7 559.7,324.7 Q 556.1,301.8 558.3,280.6 Q 560.5,259.4 569.8,243.5 Q 579,227.7 575.9,217.1 L 572.9,206.5 Q 512,200.2 451.1,206.5 Q 445,227.7 454.2,243.5 Q 463.5,259.4 465.7,280.6 Q 467.9,301.8 464.3,324.7 Q 460.6,347.7 459.8,365.3 L 459.1,383 Q 512,386.5 564.9,383 Z" fill="#1F2937" stroke="#1F2937" stroke-width="4.3" stroke-linejoin="round" stroke-linecap="round"/><path d="M 524.9,206.5 L 524.3,176.5 A 12.3 12.3 0 0 1 499.7,176.5 L 499.1,206.5 A 12.9 12.9 0 0 1 524.9,206.5 Z" fill="#1F2937" stroke="#1F2937" stroke-width="4.3" stroke-linejoin="round" stroke-linecap="round"/><path d="M 494.8,194.4 L 432.1,196.3 A 22.4 22.4 0 0 1 440.7,240.2 L 499.5,218.6 A 12.3 12.3 0 0 1 494.8,194.4 Z" fill="#1F2937" stroke="#1F2937" stroke-width="4.3" stroke-linejoin="round" stroke-linecap="round"/><path d="M 439.5,238 L 545.6,215.8 A 14.7 14.7 0 0 1 541,186.8 L 433.3,198.5 A 20 20 0 0 1 439.5,238 Z" fill="#1F2937" stroke="#1F2937" stroke-width="4.3" stroke-linejoin="round" stroke-linecap="round"/><circle cx="436.4" cy="218.3" r="22.4" fill="#1F2937" stroke="#1F2937" stroke-width="4.3" stroke-linejoin="round" stroke-linecap="round"/><path d="M 524.5,218.6 L 583.3,240.2 A 22.4 22.4 0 0 1 591.9,196.3 L 529.2,194.4 A 12.3 12.3 0 0 1 524.5,218.6 Z" fill="#1F2937" stroke="#1F2937" stroke-width="4.3" stroke-linejoin="round" stroke-linecap="round"/><path d="M 590.7,198.5 L 483,186.8 A 14.7 14.7 0 0 1 478.4,215.8 L 584.5,238 A 20 20 0 0 1 590.7,198.5 Z" fill="#1F2937" stroke="#1F2937" stroke-width="4.3" stroke-linejoin="round" stroke-linecap="round"/><circle cx="587.6" cy="218.3" r="22.4" fill="#1F2937" stroke="#1F2937" stroke-width="4.3" stroke-linejoin="round" stroke-linecap="round"/><path d="M 544.1,217.2 L 636,207.3 A 10.6 10.6 0 0 1 634.9,186.1 L 542.6,185.4 A 15.9 15.9 0 0 1 544.1,217.2 Z" fill="#1F2937" stroke="#1F2937" stroke-width="4.3" stroke-linejoin="round" stroke-linecap="round"/><path d="M 635.7,202.3 L 657.7,206.8 L 679.2,203.3 Q 686.5,194.2 678.3,185.8 L 656.6,184.5 L 635.2,191.1 Q 631.6,196.9 635.7,202.3 Z" fill="#1F2937" stroke="#1F2937" stroke-width="4.3" stroke-linejoin="round" stroke-linecap="round"/><path d="M 481.4,185.4 L 389.1,186.1 A 10.6 10.6 0 0 1 388,207.3 L 479.9,217.2 A 15.9 15.9 0 0 1 481.4,185.4 Z" fill="#1F2937" stroke="#1F2937" stroke-width="4.3" stroke-linejoin="round" stroke-linecap="round"/><path d="M 388.8,191.1 L 367.4,184.5 L 345.7,185.8 Q 337.5,194.2 344.8,203.3 L 366.3,206.8 L 388.3,202.3 Q 392.4,196.9 388.8,191.1 Z" fill="#1F2937" stroke="#1F2937" stroke-width="4.3" stroke-linejoin="round" stroke-linecap="round"/><circle cx="478.8" cy="383" r="27.1" fill="#1F2937" stroke="#1F2937" stroke-width="4.3" stroke-linejoin="round" stroke-linecap="round"/><circle cx="543.3" cy="201.3" r="18" fill="#1F2937" stroke="#1F2937" stroke-width="4.3" stroke-linejoin="round" stroke-linecap="round"/><circle cx="478.8" cy="519.5" r="23.6" fill="#1F2937" stroke="#1F2937" stroke-width="4.3" stroke-linejoin="round" stroke-linecap="round"/><circle cx="545.2" cy="383" r="27.1" fill="#1F2937" stroke="#1F2937" stroke-width="4.3" stroke-linejoin="round" stroke-linecap="round"/><circle cx="480.7" cy="201.3" r="18" fill="#1F2937" stroke="#1F2937" stroke-width="4.3" stroke-linejoin="round" stroke-linecap="round"/><circle cx="545.2" cy="519.5" r="23.6" fill="#1F2937" stroke="#1F2937" stroke-width="4.3" stroke-linejoin="round" stroke-linecap="round"/><ellipse cx="512" cy="138.2" rx="26" ry="38.2" fill="#1F2937" stroke="#1F2937" stroke-width="4.3" stroke-linejoin="round" stroke-linecap="round" transform="rotate(0 512 138.2)"/><path d="M 449.3,383 L 458.8,519.5 A 20 20 0 0 1 498.8,519.5 L 508.2,383 A 29.4 29.4 0 0 1 449.3,383 Z" fill="#E5E7EB"/><path d="M 455.8,519.5 L 467.6,664.6 A 11.2 11.2 0 0 1 489.9,664.6 L 501.7,519.5 A 22.9 22.9 0 0 1 455.8,519.5 Z" fill="#E5E7EB"/><ellipse cx="478.8" cy="675.3" rx="17.1" ry="11.9" fill="#E5E7EB"/><path d="M 515.8,383 L 525.2,519.5 A 20 20 0 0 1 565.2,519.5 L 574.7,383 A 29.4 29.4 0 0 1 515.8,383 Z" fill="#E5E7EB"/><path d="M 522.3,519.5 L 534.1,664.6 A 11.2 11.2 0 0 1 556.4,664.6 L 568.2,519.5 A 22.9 22.9 0 0 1 522.3,519.5 Z" fill="#E5E7EB"/><ellipse cx="545.2" cy="675.3" rx="17.1" ry="11.9" fill="#E5E7EB"/><path d="M 564.9,383 Q 563.4,347.7 559.7,324.7 Q 556.1,301.8 558.3,280.6 Q 560.5,259.4 569.8,243.5 Q 579,227.7 575.9,217.1 L 572.9,206.5 Q 512,200.2 451.1,206.5 Q 445,227.7 454.2,243.5 Q 463.5,259.4 465.7,280.6 Q 467.9,301.8 464.3,324.7 Q 460.6,347.7 459.8,365.3 L 459.1,383 Q 512,386.5 564.9,383 Z" fill="#E5E7EB"/><path d="M 524.9,206.5 L 524.3,176.5 A 12.3 12.3 0 0 1 499.7,176.5 L 499.1,206.5 A 12.9 12.9 0 0 1 524.9,206.5 Z" fill="#E5E7EB"/><path d="M 494.8,194.4 L 432.1,196.3 A 22.4 22.4 0 0 1 440.7,240.2 L 499.5,218.6 A 12.3 12.3 0 0 1 494.8,194.4 Z" fill="#E5E7EB"/><path d="M 439.5,238 L 545.6,215.8 A 14.7 14.7 0 0 1 541,186.8 L 433.3,198.5 A 20 20 0 0 1 439.5,238 Z" fill="#E5E7EB"/><circle cx="436.4" cy="218.3" r="22.4" fill="#E5E7EB"/><path d="M 524.5,218.6 L 583.3,240.2 A 22.4 22.4 0 0 1 591.9,196.3 L 529.2,194.4 A 12.3 12.3 0 0 1 524.5,218.6 Z" fill="#E5E7EB"/><path d="M 590.7,198.5 L 483,186.8 A 14.7 14.7 0 0 1 478.4,215.8 L 584.5,238 A 20 20 0 0 1 590.7,198.5 Z" fill="#E5E7EB"/><circle cx="587.6" cy="218.3" r="22.4" fill="#E5E7EB"/><path d="M 544.1,217.2 L 636,207.3 A 10.6 10.6 0 0 1 634.9,186.1 L 542.6,185.4 A 15.9 15.9 0 0 1 544.1,217.2 Z" fill="#E5E7EB"/><path d="M 635.7,202.3 L 657.7,206.8 L 679.2,203.3 Q 686.5,194.2 678.3,185.8 L 656.6,184.5 L 635.2,191.1 Q 631.6,196.9 635.7,202.3 Z" fill="#E5E7EB"/><path d="M 481.4,185.4 L 389.1,186.1 A 10.6 10.6 0 0 1 388,207.3 L 479.9,217.2 A 15.9 15.9 0 0 1 481.4,185.4 Z" fill="#E5E7EB"/><path d="M 388.8,191.1 L 367.4,184.5 L 345.7,185.8 Q 337.5,194.2 344.8,203.3 L 366.3,206.8 L 388.3,202.3 Q 392.4,196.9 388.8,191.1 Z" fill="#E5E7EB"/><circle cx="478.8" cy="383" r="27.1" fill="#E5E7EB"/><circle cx="543.3" cy="201.3" r="18" fill="#E5E7EB"/><circle cx="478.8" cy="519.5" r="23.6" fill="#E5E7EB"/><circle cx="545.2" cy="383" r="27.1" fill="#E5E7EB"/><circle cx="480.7" cy="201.3" r="18" fill="#E5E7EB"/><circle cx="545.2" cy="519.5" r="23.6" fill="#E5E7EB"/><ellipse cx="512" cy="138.2" rx="26" ry="38.2" fill="#E5E7EB" transform="rotate(0 512 138.2)"/><path d="M 655.1,204.7 L 658.5,177.4 L 682.5,164 L 707.5,175.6 L 712.7,202.7 L 694,222.8" fill="none" stroke="#2563EB" stroke-width="6" marker-end="url(#ah)"/><path d="M 368.9,204.7 L 365.5,177.4 L 341.5,164 L 316.5,175.6 L 311.3,202.7 L 330,222.8" fill="none" stroke="#2563EB" stroke-width="6" marker-end="url(#ah)"/>
</svg>
